<?xml version="1.0" standalone="no"?>
<!DOCTYPE svg PUBLIC "-//W3C//DTD SVG 20010904//EN"
 "http://www.w3.org/TR/2001/REC-SVG-20010904/DTD/svg10.dtd">
<svg version="1.0" xmlns="http://www.w3.org/2000/svg"
 width="512.000000pt" height="512.000000pt" viewBox="0 0 512.000000 512.000000"
 preserveAspectRatio="xMidYMid meet">

<g transform="translate(0.000000,512.000000) scale(0.100000,-0.100000)"
fill="#000000" stroke="none">
<path d="M2230 5096 c-80 -17 -174 -52 -190 -70 -6 -8 -14 -31 -17 -51 -6 -36
-5 -37 231 -273 l236 -237 -120 -120 -120 -119 -233 232 c-214 212 -237 232
-268 232 -19 0 -44 -7 -56 -15 -50 -35 -100 -255 -88 -385 21 -224 136 -440
295 -553 l59 -42 1 -186 0 -187 -112 -4 c-128 -4 -180 -22 -237 -79 -83 -83
-96 -225 -28 -322 17 -26 18 -30 3 -45 -61 -68 -61 -236 0 -304 15 -15 14 -19
-3 -45 -33 -49 -43 -82 -43 -144 0 -59 18 -119 45 -149 12 -14 10 -23 -15 -74
-59 -116 -30 -249 69 -321 59 -43 107 -55 225 -55 l96 0 0 -221 0 -221 -59
-65 c-64 -70 -137 -199 -167 -298 -14 -47 -19 -93 -19 -210 0 -132 3 -158 24
-220 94 -278 311 -474 588 -531 111 -23 271 -15 379 20 91 29 116 50 117 99 1
32 -16 52 -231 273 l-232 239 117 117 116 117 234 -229 c129 -125 246 -231
259 -234 14 -4 37 -1 52 6 81 38 128 321 86 511 -44 195 -174 378 -345 484
l-59 36 0 163 0 164 381 0 380 0 -22 -31 c-58 -83 -212 -218 -327 -288 l-52
-33 37 -66 c20 -37 40 -71 44 -76 16 -18 212 126 324 239 210 210 336 444 401
745 15 67 19 126 19 285 -1 181 -3 211 -27 312 -66 281 -199 517 -403 718
-124 123 -361 283 -384 260 -5 -6 -23 -40 -39 -77 l-30 -67 56 -32 c134 -75
289 -205 374 -311 l30 -38 -200 0 -200 0 -181 146 -181 145 0 49 c0 47 2 50
88 137 169 171 239 348 229 578 -9 205 -77 355 -227 506 -81 82 -109 102 -190
142 -52 26 -122 54 -155 63 -83 22 -254 27 -335 10z m265 -171 c203 -43 384
-207 445 -403 74 -240 -14 -513 -213 -658 -39 -29 -66 -57 -74 -77 -8 -21 -12
-107 -12 -249 l-1 -218 -255 0 -255 0 -2 232 -3 232 -45 33 c-140 105 -190
159 -239 257 -46 93 -62 170 -59 274 l3 90 209 -205 c115 -113 220 -209 233
-214 14 -5 34 -5 51 2 31 12 386 361 408 401 29 55 24 62 -202 289 -207 208
-216 218 -188 222 61 9 132 6 199 -8z m405 -1602 c0 -2 -18 -3 -40 -3 -39 0
-40 1 -40 35 l0 36 40 -32 c22 -18 40 -34 40 -36z m260 -778 l0 -595 -694 0
-694 0 -31 26 c-40 33 -43 83 -6 119 23 24 28 25 170 25 l145 0 0 84 0 85
-144 3 c-137 3 -146 4 -170 27 -35 33 -35 83 -1 116 23 24 28 25 170 25 l146
0 -3 88 -3 87 -147 3 c-145 2 -147 3 -167 29 -27 33 -27 73 0 107 l20 26 150
0 149 0 0 90 0 90 -145 0 c-142 0 -147 1 -170 25 -31 30 -32 73 -4 109 l20 26
705 0 704 0 0 -595z m560 530 c134 -298 148 -643 39 -952 -17 -48 -40 -105
-50 -125 l-19 -38 -180 0 -180 0 0 590 0 590 180 0 181 0 29 -65z m-1080
-1485 c0 -233 5 -249 82 -283 163 -74 291 -230 333 -411 15 -63 20 -207 8
-220 -4 -3 -102 88 -218 204 -202 201 -213 210 -250 210 -37 0 -47 -8 -242
-203 -195 -195 -203 -205 -203 -242 0 -37 9 -48 210 -250 116 -116 207 -214
204 -218 -4 -4 -41 -7 -83 -7 -350 1 -619 284 -599 629 9 155 83 308 198 413
l50 45 0 262 0 261 255 0 255 0 0 -190z"/>
<path d="M3522 4883 c-11 -10 -64 -94 -118 -188 -53 -93 -104 -180 -111 -192
-14 -20 -11 -23 54 -62 38 -23 73 -41 79 -41 5 0 45 64 89 141 44 77 83 145
86 151 5 7 218 -106 297 -157 1 -2 -40 -76 -93 -167 -57 -99 -95 -176 -95
-192 0 -31 12 -43 147 -159 51 -43 127 -119 170 -170 117 -137 128 -147 160
-147 18 0 89 35 193 95 90 52 164 94 165 93 20 -30 166 -290 163 -292 -1 -2
-73 -44 -158 -93 -85 -50 -163 -102 -174 -117 -23 -30 -23 -30 37 -201 31 -88
74 -267 92 -379 4 -21 17 -49 30 -62 24 -24 27 -24 220 -24 l195 0 0 -170 0
-170 -195 0 c-193 0 -196 0 -220 -24 -13 -13 -27 -41 -30 -62 -24 -148 -52
-265 -87 -364 -66 -193 -65 -186 -42 -217 16 -22 285 -190 328 -206 7 -2 -134
-262 -159 -295 -1 -1 -77 41 -169 94 -203 117 -206 117 -284 19 -83 -102 -169
-191 -266 -272 -94 -79 -115 -104 -116 -138 0 -11 43 -94 95 -184 53 -90 94
-165 93 -166 -8 -7 -268 -156 -280 -160 -8 -3 -28 21 -53 65 -22 39 -44 69
-50 68 -23 -6 -135 -74 -135 -81 0 -14 112 -208 136 -236 40 -46 68 -37 319
108 127 72 238 141 248 153 33 39 22 75 -77 245 l-94 163 153 154 153 153 163
-94 c165 -96 201 -108 239 -82 19 13 270 432 291 487 6 15 4 34 -5 56 -11 28
-40 48 -175 126 -89 51 -164 96 -167 101 -3 5 9 53 26 106 17 54 42 145 54
203 l23 105 209 6 c115 3 210 6 211 7 1 1 9 15 18 32 12 24 15 77 15 305 l0
277 -29 29 -29 29 -199 0 -199 0 -12 68 c-9 56 -30 134 -89 333 -4 13 32 38
148 105 84 48 163 97 177 109 46 40 36 69 -108 320 -73 127 -141 238 -152 248
-38 33 -75 21 -246 -78 l-162 -94 -154 154 -154 153 94 164 c99 171 110 207
77 246 -10 11 -121 79 -246 151 -240 138 -273 150 -315 114z"/>
<path d="M1225 4735 c-99 -58 -186 -112 -192 -122 -28 -37 -14 -76 81 -241
l94 -164 -154 -153 -153 -154 -163 95 c-171 98 -208 110 -246 77 -11 -10 -80
-121 -153 -248 -140 -243 -152 -277 -113 -315 10 -10 87 -58 169 -105 83 -48
154 -90 159 -95 4 -5 -3 -43 -18 -87 -30 -92 -76 -279 -76 -310 l0 -23 -201 0
-201 0 -29 -29 -29 -29 0 -277 c0 -228 3 -281 15 -305 9 -17 17 -31 18 -32 1
-1 96 -4 211 -7 l209 -6 23 -105 c12 -58 37 -149 54 -203 17 -53 29 -101 26
-106 -3 -5 -78 -50 -167 -101 -135 -78 -164 -98 -175 -126 -8 -18 -11 -41 -7
-51 12 -33 265 -468 283 -487 35 -36 75 -24 248 76 l163 95 154 -154 153 -153
-94 -163 c-99 -170 -110 -206 -76 -245 9 -12 121 -81 247 -153 235 -136 273
-150 310 -119 21 18 97 148 93 161 -2 5 -32 27 -68 49 -64 39 -65 39 -82 20
-9 -11 -18 -26 -20 -32 -3 -7 -61 21 -149 72 -79 45 -145 84 -147 85 -1 1 41
76 93 166 60 104 95 175 95 193 0 21 -11 38 -42 65 -152 131 -232 208 -301
291 -88 104 -116 125 -154 115 -14 -3 -95 -47 -180 -96 -85 -50 -156 -89 -157
-87 -13 15 -168 289 -165 292 2 1 69 39 149 85 162 92 205 129 197 170 -3 14
-25 85 -50 156 -39 113 -69 235 -92 379 -4 21 -17 49 -30 62 -24 24 -27 24
-220 24 l-195 0 0 170 0 170 194 0 c246 0 236 -6 265 160 22 124 63 273 105
384 14 37 26 76 26 86 0 35 -42 69 -182 149 -79 44 -149 85 -156 90 -11 6 5
41 70 154 l85 146 164 -95 c101 -58 175 -94 192 -94 32 0 44 11 160 147 43 51
119 127 170 170 135 116 147 128 147 159 0 16 -38 93 -96 191 -52 91 -94 166
-92 167 2 2 65 38 140 81 l138 78 -22 36 c-47 77 -68 111 -71 111 -1 -1 -83
-48 -182 -105z"/>
<path d="M1370 3951 l-65 -59 59 -61 c36 -36 64 -57 71 -53 7 4 36 28 64 54
l52 47 -52 66 c-29 36 -55 65 -58 65 -3 0 -35 -27 -71 -59z"/>
<path d="M1623 3657 c-194 -161 -358 -402 -440 -646 -89 -265 -96 -594 -18
-864 86 -297 267 -561 514 -751 33 -25 61 -46 64 -46 2 0 25 31 50 69 l46 69
-47 38 c-228 183 -361 370 -447 627 -123 372 -65 784 158 1117 49 73 223 257
281 297 l29 20 -33 49 c-19 27 -41 59 -51 72 l-17 23 -89 -74z"/>
<path d="M1147 3653 c-212 -276 -343 -604 -373 -934 l-6 -76 32 -7 c18 -3 56
-6 86 -6 l53 0 6 48 c32 263 75 412 171 605 43 86 126 215 178 276 37 44 37
45 18 60 -11 9 -40 33 -64 54 -25 20 -48 37 -51 37 -3 0 -26 -26 -50 -57z"/>
</g>
</svg>
